<svg width="22" height="22" viewBox="0 0 22 22" fill="none" xmlns="http://www.w3.org/2000/svg">
<path d="M3.22222 11H1L11 1L21 11H18.7778M3.22222 11V18.7778C3.22222 19.3671 3.45635 19.9324 3.8731 20.3491C4.28984 20.7659 4.85507 21 5.44444 21H16.5556C17.1449 21 17.7102 20.7659 18.1269 20.3491C18.5437 19.9324 18.7778 19.3671 18.7778 18.7778V11" stroke="#3F80FF" stroke-width="2" stroke-linecap="round" stroke-linejoin="round"/>
<path d="M7.6665 21V14.3333C7.6665 13.7439 7.90063 13.1787 8.31738 12.762C8.73413 12.3452 9.29936 12.1111 9.88873 12.1111H12.1109C12.7003 12.1111 13.2655 12.3452 13.6823 12.762C14.099 13.1787 14.3332 13.7439 14.3332 14.3333V21" stroke="#3F80FF" stroke-width="2" stroke-linecap="round" stroke-linejoin="round"/>
</svg>
