<svg width="13" height="16" viewBox="0 0 13 16" fill="none" xmlns="http://www.w3.org/2000/svg">
<path d="M11.1515 5.33333H10.355V3.80952C10.355 1.70667 8.57074 0 6.37229 0C4.17385 0 2.38961 1.70667 2.38961 3.80952V5.33333H1.59307C0.716883 5.33333 0 6.01905 0 6.85714V14.4762C0 15.3143 0.716883 16 1.59307 16H11.1515C12.0277 16 12.7446 15.3143 12.7446 14.4762V6.85714C12.7446 6.01905 12.0277 5.33333 11.1515 5.33333ZM3.98268 3.80952C3.98268 2.54476 5.05004 1.52381 6.37229 1.52381C7.69455 1.52381 8.7619 2.54476 8.7619 3.80952V5.33333H3.98268V3.80952ZM11.1515 14.4762H1.59307V6.85714H11.1515V14.4762ZM6.37229 12.1905C7.24849 12.1905 7.96537 11.5048 7.96537 10.6667C7.96537 9.82857 7.24849 9.14286 6.37229 9.14286C5.4961 9.14286 4.77922 9.82857 4.77922 10.6667C4.77922 11.5048 5.4961 12.1905 6.37229 12.1905Z" fill="#001640"/>
</svg>
