<svg width="9" height="16" viewBox="0 0 9 16" fill="none" xmlns="http://www.w3.org/2000/svg">
<path d="M7.5045 0H1.5C0.6715 0 0 0.6715 0 1.5V14.5C0 15.3285 0.6715 16 1.5 16H7.5045C8.333 16 9.0045 15.3285 9.0045 14.5V1.5C9.0045 0.6715 8.333 0 7.5045 0ZM8.0045 14.5C8.0045 14.776 7.7805 15 7.5045 15H1.5C1.224 15 1 14.776 1 14.5V1.5C1 1.224 1.224 1 1.5 1H7.5045C7.7805 1 8.0045 1.224 8.0045 1.5V14.5ZM4.503 12.5028C3.95175 12.5028 3.5055 12.9495 3.5055 13.5C3.5055 14.0505 3.952 14.4975 4.503 14.4975C5.05425 14.4975 5.5005 14.0505 5.5005 13.5C5.5005 12.9495 5.05425 12.5028 4.503 12.5028ZM5.503 1.5H3.503C3.227 1.5 3.003 1.724 3.003 2C3.003 2.276 3.227 2.5 3.503 2.5H5.503C5.779 2.5 6.003 2.276 6.003 2C6.003 1.724 5.779 1.5 5.503 1.5Z" fill="#001640"/>
</svg>
